<?xml version="1.0" encoding="UTF-8"?>
<svg id="Layer_2" data-name="Layer 2" xmlns="http://www.w3.org/2000/svg" xmlns:xlink="http://www.w3.org/1999/xlink" viewBox="0 0 64.15 44.16">
  <defs>
    <style>
      .cls-1 {
        stroke: url(#linear-gradient-2);
      }

      .cls-1, .cls-2 {
        fill: none;
        stroke-miterlimit: 10;
      }

      .cls-3 {
        fill: url(#linear-gradient-12);
      }

      .cls-3, .cls-4, .cls-5, .cls-6, .cls-7, .cls-8, .cls-9, .cls-10, .cls-11, .cls-12, .cls-13, .cls-14, .cls-15, .cls-16, .cls-17, .cls-18, .cls-19 {
        stroke-width: 0px;
      }

      .cls-4 {
        fill: url(#linear-gradient-17);
      }

      .cls-5 {
        fill: #231f20;
      }

      .cls-6 {
        fill: url(#linear-gradient-6);
      }

      .cls-7 {
        fill: url(#linear-gradient-15);
      }

      .cls-8 {
        fill: url(#linear-gradient-11);
      }

      .cls-9 {
        fill: url(#linear-gradient-5);
      }

      .cls-10 {
        fill: url(#linear-gradient-13);
      }

      .cls-11 {
        fill: url(#linear-gradient-16);
      }

      .cls-12 {
        fill: url(#linear-gradient-14);
      }

      .cls-13 {
        fill: url(#linear-gradient-7);
      }

      .cls-14 {
        fill: url(#linear-gradient-3);
      }

      .cls-15 {
        fill: url(#linear-gradient-9);
      }

      .cls-2 {
        stroke: url(#linear-gradient);
      }

      .cls-16 {
        fill: url(#linear-gradient-8);
      }

      .cls-17 {
        fill: #fff;
      }

      .cls-18 {
        fill: url(#linear-gradient-10);
      }

      .cls-19 {
        fill: url(#linear-gradient-4);
      }
    </style>
    <linearGradient id="linear-gradient" x1="0" y1="26.53" x2="62.1" y2="26.53" gradientUnits="userSpaceOnUse">
      <stop offset="0" stop-color="#ee3176"/>
      <stop offset="1" stop-color="#b054a0"/>
    </linearGradient>
    <linearGradient id="linear-gradient-2" x1="3.51" y1="28.2" x2="63.53" y2="28.2" gradientTransform="translate(-2.71 .4) rotate(-9.02)" gradientUnits="userSpaceOnUse">
      <stop offset="0" stop-color="#7354a3"/>
      <stop offset=".31" stop-color="#a56a73"/>
      <stop offset=".62" stop-color="#d17e4a"/>
      <stop offset=".86" stop-color="#ec8a30"/>
      <stop offset="1" stop-color="#f78f27"/>
    </linearGradient>
    <linearGradient id="linear-gradient-3" x1="35.62" y1="-.04" x2="35.62" y2="37.17" gradientUnits="userSpaceOnUse">
      <stop offset="0" stop-color="#ffec00"/>
      <stop offset=".21" stop-color="#f7c61b"/>
      <stop offset=".68" stop-color="#e4695e"/>
      <stop offset="1" stop-color="#d72690"/>
    </linearGradient>
    <linearGradient id="linear-gradient-4" y1="-.04" y2="37.17" xlink:href="#linear-gradient-3"/>
    <linearGradient id="linear-gradient-5" y1="-.04" y2="37.17" xlink:href="#linear-gradient-3"/>
    <linearGradient id="linear-gradient-6" y1="-.04" y2="37.17" xlink:href="#linear-gradient-3"/>
    <linearGradient id="linear-gradient-7" y1="-.04" y2="37.17" xlink:href="#linear-gradient-3"/>
    <linearGradient id="linear-gradient-8" x1="36.76" y1="-.04" x2="36.76" y2="37.17" xlink:href="#linear-gradient-3"/>
    <linearGradient id="linear-gradient-9" x1="37.28" y1="-.04" x2="37.28" y2="37.17" xlink:href="#linear-gradient-3"/>
    <linearGradient id="linear-gradient-10" x1="37.4" y1="-.04" x2="37.4" y2="37.17" xlink:href="#linear-gradient-3"/>
    <linearGradient id="linear-gradient-11" x1="35.58" y1="-.04" x2="35.58" y2="37.17" xlink:href="#linear-gradient-3"/>
    <linearGradient id="linear-gradient-12" x1="37.15" y1="-.04" x2="37.15" y2="37.17" xlink:href="#linear-gradient-3"/>
    <linearGradient id="linear-gradient-13" x1="36.21" y1="-.04" x2="36.21" y2="37.17" xlink:href="#linear-gradient-3"/>
    <linearGradient id="linear-gradient-14" x1="36.84" y1="-.04" x2="36.84" y2="37.17" xlink:href="#linear-gradient-3"/>
    <linearGradient id="linear-gradient-15" x1="35.75" y1="-.04" x2="35.75" y2="37.17" xlink:href="#linear-gradient-3"/>
    <linearGradient id="linear-gradient-16" x1="36.5" y1="-.04" x2="36.5" y2="37.17" xlink:href="#linear-gradient-3"/>
    <linearGradient id="linear-gradient-17" x1="36.13" y1="-.04" x2="36.13" y2="37.17" xlink:href="#linear-gradient-3"/>
  </defs>
  <g id="Layer_1-2" data-name="Layer 1">
    <g>
      <polygon class="cls-2" points="1.41 12.91 40.16 42.36 61.15 10.52 1.41 12.91"/>
      <polygon class="cls-1" points="3.22 7.71 62.83 14.9 36.92 43.1 3.22 7.71"/>
      <polygon class="cls-17" points="3.4 2.47 33.12 44.16 64.15 18.73 3.4 2.47"/>
      <g>
        <path class="cls-14" d="M16.76,18.86c0,.07,0,.14.01.21h37.7c0-.07.01-.14.01-.21,0-.16-.02-.31-.02-.46H16.79c0,.15-.02.3-.02.46Z"/>
        <path class="cls-19" d="M54.21,15.75C52.72,6.82,44.98,0,35.62,0s-17.1,6.82-18.58,15.75h37.16Z"/>
        <path class="cls-9" d="M16.84,17.4c-.02.22-.02.44-.03.67h37.64c0-.22-.02-.45-.03-.67H16.84Z"/>
        <path class="cls-6" d="M16.91,16.6c-.02.19-.05.37-.06.56h37.55c-.02-.19-.04-.37-.06-.56H16.91Z"/>
        <path class="cls-13" d="M17.01,15.94c-.02.15-.05.31-.07.46h37.36c-.02-.16-.05-.31-.07-.46H17.01Z"/>
        <path class="cls-16" d="M49.03,30.12h-24.53l.47.67h23.23l.83-.67Z"/>
        <path class="cls-15" d="M51.38,28.23h-28.22l.47.67h26.92l.83-.67Z"/>
        <path class="cls-18" d="M52.86,26.49h-30.92l.47.67h30.13c.11-.22.22-.44.32-.67Z"/>
        <path class="cls-8" d="M43.61,34.48h-16.05l.47.67h14.75l.83-.67Z"/>
        <path class="cls-3" d="M53.49,24.87H20.81l.47.67h31.97c.08-.22.17-.44.24-.67Z"/>
        <path class="cls-10" d="M46.48,32.18h-20.54l.47.67h19.24l.83-.67Z"/>
        <path class="cls-12" d="M53.91,23.4H19.78l.47.67h33.49c.06-.22.12-.44.17-.67Z"/>
        <path class="cls-7" d="M54.45,19.51H17.04l.47.67h36.9c.02-.22.03-.44.03-.67Z"/>
        <path class="cls-11" d="M54.2,22H18.8l.47.67h34.83c.04-.22.07-.45.1-.67Z"/>
        <path class="cls-4" d="M54.39,20.7H17.88l.47.67h35.95c.03-.22.07-.44.09-.67Z"/>
        <g>
          <g>
            <path class="cls-5" d="M37.28,33.9c-.41.4-1.17.45-1.01,1.16-.13,0-.25,0-.38,0-.22-.46-.6-.77-.98-1.06l2.37-.11Z"/>
            <g>
              <path class="cls-5" d="M25.33,11.65s.04-.05.06-.07c-.04.05.03.03-.06.07Z"/>
              <g>
                <path class="cls-5" d="M29.44,12.68c-.03.95.5,3.25.6,4.33-.04.21.02.16.03.25.09.6.12.43.13.46.02.13.07.26.09.39.11.63.13,2.02.19,2.76l-.13-.05c-.03-.07-.15-.23-.16-.25-.09-.3-.08-.69-.13-1,0-.03-.06-.05-.06-.05-.01-.09-.03-.12-.03-.14-.05-.33-.04-1.34-.09-1.57-.02-.08-.56-.75-.66-.9l.66.55c-.11-1.12-.24-1.81-.54-2.87-.34-1.24-.99-3.17-2.09-3.8-.56-.5-1.41-.88-2.12-.6-.37,0-.56.09-.9.18l.02-.07c.93-.75,3.05-.46,3.97.25.62.48,1.03,1.35,1.22,2.15Z"/>
                <path class="cls-5" d="M27.26,10.77c1.09.63,1.74,2.56,2.09,3.8-.48-.12-.71-.54-1.41-.53l-.02.11c-.14-.13-.29-.28-.44-.39-.37-.45-.74-.64.11-.56.09,0,.83.25.09-.07-.05-.02-.59-.09-.25-.18.37-.1.81.07-.3-.23,0-.1,1-.19.46-.19-.26,0-1.16.23-.44-.07,1.04.11-.09-.15-.43-.18.41-.35,1.02-.13.77-.28-.41-.06-.75-.08-1.12.14.19-.33.35-.38.68-.49-.34,0-.74.09-.98.39-.13-.05.44-.57.52-.58-.06-.1-.77.28-.81.44-.16-.08.56-.5.65-.51-.03-.07-.63.13-.68.26-.12-.08.34-.46.71-.56.35-.09.56-.13,0-.07-.22.02-.44.14-.62.28l.38-.46c-.37.12-.56.52-.84.74.07-.09.49-.77.22-.56.14-.14.29-.24.44-.37-.32.03-.53.3-.76.51-.04-.2.33-.49.44-.63.08-.1.08-.11.09-.25.34.07,1.12.32,1.42.49Z"/>
                <path class="cls-5" d="M39.65,14.65s0,.09.28.35c-.26.08-.53-.14-.81-.18-.44-.06-1.3.03-1.79.07-.4.03-.79.12-1.19.18-.01,0-.08-.11-.09-.11-.14.02-.74.25-.9.39,0-.01-.08-.26-.11-.28l-.4.63c-.37-.07-.89-.21-1.22-.25-.34-.04-.68.03-1.01.04-.03,0,0-.11-.03-.11-.61,0-.92.4-.68-.07,1.66-1.26,3.25-.29,3.43-.32.12-.02.86-.85,2.28-.95.85-.06,1.55.02,2.23.6Z"/>
                <path class="cls-5" d="M28.01,16.51c-.09.09.25.14.4.21,1.07.54.2.22-.6.35-1.12.19-2.6,1.42-3.18,2.52-.6,1.15-.63,2.11-.47,3.4-.5-1.19-.53-2.06-.22-3.34.16.17.51-.94.76-1.39.23-.41.63-.74.47-.83,1.22-1.15,2.28-.84,2.85-.92Z"/>
                <path class="cls-5" d="M27.73,14.79c.09.33-.2-.08-.54-.05.25.7.86.64.44,1-.02.02-.34.23-.41.28-.12.08-.25.11-.33.25,0-.36.56-.69-.11-.3.17-.33.3-.56-.02-.12-.07-.04.19-.61.3-.65-.05-.15-.63.72-.63.84l.14-1c-.3.3-.58,1.5-.4.44.38-.97.14-.54-.14.16.28-1.06-.13.14-.11-.26.45-1.2-.04-.31-.14.3-.08-.38.2-1,.05-.83-.07.23-.12.46-.19.69-.14-.1.08-.69.02-.7-.1.16-.34.74-.36.77-.01.02-.02.02-.03.04.01-.18.07-.35.08-.53l-.27.49s-.05.02-.03-.16c.39-.99.03-.23-.14.19.23-.79.06-.47-.14.05-.29.19.16-.6.11-.62-.21.23-.42,1.12-.3.26-.28.61-.41,1.37-.21.12-.09-.02-.33,1.67-.3.93.3-.95.06-.68-.06-.14-.21.92.12,1.36-.28.58-.14-.91.36-2.05,1.17-2.36.51-.19,1.65-.12,2.2.04.17.05.46.2.65.28Z"/>
                <path class="cls-5" d="M27.48,13.77c.16.1.3.26.44.39.09.08.2.2.28.28.01.01.02.02.03.04.14.15.25.33.38.49-.04.08-.06.21-.16.18,0,0-.07-.04-.13-.07-.19-.12-.4-.19-.6-.28-.18-.08-.48-.23-.65-.28-.54-.15-1.69-.23-2.2-.04.02-.15-.19,0-.28-.12-.08-.23.66-.62.79-.76.71-.27,1.43-.27,2.09.18Z"/>
                <path class="cls-5" d="M25.39,13.59c-.13.14-.87.53-.79.76.09.13.3-.03.28.12-.81.3-1.31,1.45-1.17,2.36-.12-.22-.26-.42-.28-.69-.12-1.16,1.08-2.21,1.96-2.55Z"/>
                <path class="cls-5" d="M25.14,10.18c.23,0,.47.06.7.11-.01.14-.02.15-.09.25,0-.06-.1-.01-.11,0-.29.21-.93,1.01-.3.16-.06-.13-.43.4-.54.44,0,0,.02-.07.09-.19.91-.89.43-.61-.27.16.46-.72.29-.55-.16-.07-.09-.03.29-.4.32-.49-.22.15-.64.74-.33.23,0-.05-.21.17-.28.26.14-.33.09-.28-.09-.07-.17.18-.25.32-.33.56-.01-.52.15-.93.52-1.23l-.02.07c.34-.09.53-.18.9-.18Z"/>
                <path class="cls-5" d="M24.79,11.13c-.04.07-.27.37-.21.42.38-.12.42-.03.44-.04.02,0,.05-.15.27-.35.23-.21.44-.48.76-.51-.15.13-.3.23-.44.37-.01.01-.13.04-.22.19-.25.42.2-.18.22-.19.27-.2-.15.47-.22.56-.02.02-.06.03-.06.07-.02,0-.38.08-.4.07-.03-.02.05-.08,0-.11-.02-.01-.34.05-.41.04-.03,0,0-.13-.6-.11l.14-.6c.19-.21.23-.26.09.07-.02.03-.1.07-.08.14.07,0,.06-.1.08-.14.07-.09.27-.32.28-.26-.31.51.11-.08.33-.23-.02.09-.4.46-.32.49.44-.48.62-.65.16.07.7-.76,1.18-1.05.27-.16-.08.12-.09.18-.09.19Z"/>
                <path class="cls-5" d="M23.94,19.64c.2-.84.64-1.66,1.23-2.22.15.08-.25.42-.47.83-.25.45-.6,1.56-.76,1.39Z"/>
                <path class="cls-5" d="M26.72,12.29c-.14-.01-.08-.09-.17-.07-.06,0-.44.4-.17-.07.37-.22.71-.2,1.12-.14.25.15-.36-.07-.77.28Z"/>
                <path class="cls-5" d="M31.49,9.37c-.43.57-.38.95-.51.49.14-.23-.09-.44.51-.49Z"/>
                <path class="cls-5" d="M25.64,15.53c-.04.15-.01.25-.06.28.05-.23-.13-.2-.28-.21.02-.03.26-.61.36-.77.06.01-.16.6-.02.7Z"/>
                <path class="cls-5" d="M25.26,15.63c-.25.26-.18.04-.19-.04l.27-.49c-.01.18-.07.35-.08.53Z"/>
                <path class="cls-5" d="M26.46,11.09v-.07c.56-.06.35-.02,0,.07Z"/>
                <path class="cls-5" d="M35.16,19.89c-.17.24-.41.4-.6.6-.17-.04-1.12.58-1.07.37.64-.76.65-.55-.13-.28,1.51-1.57,1.67-1.75-.14-.26-.13.01.4-1.14.38-1.23-.27.35-.94,1.14-.81.72.9-1.42-.04-.1-.17-.09l-.11-.09c.53-1.73.89-2-.25-.23-.01-.01-.22-.19-.25-.21l.14-.63-.3.53c-.14-.08-.41-.13-.6-.25-.31-.19-.8-.77-.95-.74-.02-.13-.07-.26-.09-.39-.06-.16.26-.35.41-.46.1.07.37-.14.55-.18,1.62-.33,3.63.99,4,2.82Z"/>
                <path class="cls-5" d="M31.84,19.08c.05.03.11.07.16.11.03.03.24.2.25.21.55.64.95,2.41.95,3.27-.1.07-.07.75-.16,1.04-.17.54-.03-.28-.06-.7-.07-.93-.47-1.01-.51-1.06-.06-.09-.66-1.7-.79-2.01-.16-.37-.57-1.08-.44-1.11.19.12.46.17.6.25Z"/>
                <g>
                  <path class="cls-5" d="M31.24,18.83c-.12.02.29.74.44,1.11.13.31.73,1.92.79,2.01.04.05.44.13.51,1.06.03.43-.11,1.24.06.7.09-.29.06-.96.16-1.04,0,.51-.11,1.32-.4,1.72-.3-.33-.09-.08-.11.05,0,.03-.11.05-.09.21.01.11.8,1.71.92,2.04.74,2.01.98,4.32.95,6.48,0,.08-.07.36-.06.44.02.21.36.28.51.39.38.29.76.59.98,1.06-2.65,0-5.29.04-7.93,0-.74-.75-.04-.66.9-.84.08-.09-.63-.33-.71-.4,0-.04.46-.16.51-.16.41-.01,1.3.51.57-.21.2-.04.43-.21.63-.14.04.05.23.4.27.39.02,0,.17-.36.24-.44.59-.76.59-.53.16.25q.2-.06.4-.12c-.02.89.52-.17.43-.55-.13-.31-.53-.11-.51-.28.79-.56,1.15.24,1.03,1.07,1.28-1.77.89-5.41.4-7.48-.41-1.7-1.3-3.66-1.9-5.33l.13.05c-.05-.74-.08-2.13-.19-2.76.15-.03.64.55.95.74Z"/>
                  <g>
                    <g>
                      <path class="cls-5" d="M29.22,33.44c.73.72-.16.2-.57.21l.16-.18c.13-.02.32-.02.41-.04Z"/>
                      <path class="cls-5" d="M32.31,23.83h.03s.42.66.24.67c-.04,0-.23-.59-.27-.67Z"/>
                    </g>
                    <g>
                      <path class="cls-5" d="M32.34,23.83h-.03c-.08-.19-.17-.38-.25-.56l.09-.25c.16.07,0,.15,0,.16.02.18.25.05.27.05.09.03.2.99,0,.46-.03.03-.09.09-.08.14Z"/>
                      <path class="cls-5" d="M32.15,23.02l-.09.25c-.04-.08-.28-.45-.25-.51.63-.22.69-.27.16.21-.03.15.08,0,.19.05Z"/>
                      <path class="cls-5" d="M31.82,21.26l.05.02c-.58.99-1.04.66-.05-.02Z"/>
                      <path class="cls-5" d="M30.97,20.31c.16.43-.23.54-.24.37l.24-.37Z"/>
                      <path class="cls-5" d="M31.76,22.39c.31.06-.02.32-.14.09l.14-.09Z"/>
                      <path class="cls-5" d="M31.7,21.93c.07.02-.18.41-.27.26l.27-.26Z"/>
                      <path class="cls-5" d="M31.13,21.02c.12-.03-.13.26-.17.16l.17-.16Z"/>
                    </g>
                  </g>
                </g>
                <path class="cls-5" d="M29.34,14.58c.29,1.06.43,1.75.54,2.87l-.66-.55c-.12-.16-.33-.3-.35-.33-.01-.02.02-.13-.16-.48-.21-.41-.22-.72-.76-.93.03-.2.26.09.38-.09.06.03.12.07.13.07.34.23.74.69.92,1.09.02.05.05.12.06.18.01.03.02.07.03.11,0,.03.02.07.03.11,0,.03-.05.04-.03.09.13.38.2.15.03-.09.01-.12-.03-.1-.03-.11-.01-.04-.02-.07-.03-.11-.01-.04-.01-.06-.06-.18-.25-.65-.35-.75-.76-1.27-.13-.16-.24-.34-.38-.49.89.28.63-.1-.03-.04-.08-.09-.2-.2-.28-.28l.02-.11c.7-.02.93.41,1.41.53Z"/>
                <path class="cls-5" d="M27.73,14.79c.2.09.41.16.6.28-.12.18-.35-.12-.38.09.54.21.55.52.76.93-.03.12-.23-.22-.4-.42-.04.03.17.62-.14.44-.02-.36-.02-.36-.33-.48-.07.05-.13.1-.21.14v-.04c.41-.36-.2-.3-.44-1,.34-.03.63.38.54.05Z"/>
                <path class="cls-5" d="M27.76,19.15c-.22.4-.16.45-.19.56-.04.02-.07.07-.09.11.1-.27-.11-.38-.28-.63-.1.05-.22-.55-.22-.72,0-.13.03-.7.14-.72.21-.03.46,1.24.55,1.46l.09-.05Z"/>
                <g>
                  <path class="cls-5" d="M28.71,16.09c.18.34.15.45.16.48.02.04.23.17.35.33.11.15.65.82.66.9.05.23.05,1.24.09,1.57-.64-.18-.42-.08.03.14,0,0,.06.02.06.05.05.32.03.7.13,1l-.11.11c-.57-.54-.08.09.03.39l-.55-.37c.19.36.56.77.28.69-.04-.06-.65-.4-.79-.44l.73.9s-.02.15-.08.28c-1.4-.67-1.06-.51-.11.37-.21.82-.1.26-.95.07.78.9,1.4,1.07-.17.72-.49.03,1.17.6.95.77-1.55-.38-.81-.36-.02.37l-.82-.14c.32.17.64.38.89.67-.02.05-.19-.04-.25-.05-.65-.14-.6-.19-.16.18.82.68-.06.13-.57.19.35.15.71.29.98.6l-.54-.07c.29.09.77.37.81.72-.08.05-.67-.63-.02.23-.84-.5-.92-.06-1.53-1.21-.05.02.16.61.17.67-.13-.08-.22-.23-.32-.35-.95-2.38.3-6.18,1.71-8.11-.64-.01-1.67.85-1.99,1.43l-.09.05c-.09-.22-.34-1.49-.55-1.46-.12.02-.15.6-.14.72,0,.17.13.77.22.72-.07.08.18.37.14.6-.29-.48-.02.28-.09.35l-.95-.84c-.25-.07.66.81.57,1.06-1.35-.92-.09.01-.08.12l-.05.09c-1.06-.86-1.09-1.17-.24.37l-.08.16c-1.37-.96-1.19-.75-.21.4.05.34-.58-.34-.9-.62l-.02.09.77.72c.12.27-.57-.27-1.03-.3,0,.17,1.05.83.81.9-.81-.34-.08.11-.05.26.02.1-.06.12-.06.12l-.95-.62.82.97s.05.03-.06.32c-1.26-1.08-.84-.71-.13.37,0,.17-.65-.52-.63-.35l.73.99c-.85-.17-1.03-.56-1.36-1.36-.15-1.29-.13-2.25.47-3.4.57-1.09,2.05-2.33,3.18-2.52.8-.13,1.67.19.6-.35-.15-.07-.48-.12-.4-.21.67-.09-.31-.17-.54-.19.79-.7-.3.07-.36.02-.07-.05.08-.21.14-.28.04-.04.31-.24.38-.28.07-.04.14-.09.21-.14.32.11.31.12.33.48.31.18.1-.41.14-.44.16.2.36.54.4.42Z"/>
                  <g>
                    <path class="cls-5" d="M27.63,15.74v.04c-.07.04-.34.24-.38.28l-.03-.04c.07-.05.39-.26.41-.28Z"/>
                    <path class="cls-5" d="M25.74,22.67c-.05.26-.1.28-.13.35l-.82-.97.95.62Z"/>
                    <path class="cls-5" d="M29.85,21.37c.08.12,0,.3-.06.46l-.73-.9c.14.04.75.38.79.44Z"/>
                    <path class="cls-5" d="M24.84,20.59l.08.02c-.1,1.4-.63,1.05-.08-.02Z"/>
                    <path class="cls-5" d="M29.22,24.89l-.16.18c-.44-.37-.5-.31.16-.18Z"/>
                    <path class="cls-5" d="M26.35,18.1l.05.05c-.26,1.07-.32.84-.05-.05Z"/>
                    <path class="cls-5" d="M29.97,19.36s.02.05.03.14c-.45-.22-.68-.32-.03-.14Z"/>
                  </g>
                </g>
                <g>
                  <path class="cls-5" d="M28.05,25.84c-.59-.73-.86-1.49-.98-2.46.19-.07.06-.81.13-1.5.03-.32.3-1.81.38-2.16.03-.12-.03-.16.19-.56.32-.58,1.35-1.44,1.99-1.43-1.4,1.93-2.65,5.73-1.71,8.11Z"/>
                  <path class="cls-5" d="M27.07,23.37c-.11-.86-.05-2.85.41-3.55.02-.04.05-.09.09-.11-.08.35-.35,1.84-.38,2.16-.07.68.06,1.43-.13,1.5Z"/>
                </g>
                <path class="cls-5" d="M33.77,16.79s.03.05.09.11c.58.45,1.09.8,1.45,1.53.16.31.23.72.38.97-.09,1.27.18-.23.28-.56.33-1,.92-1.58.95-1.67.03-.11-.03-.12-.03-.12,0,0,.01-.03.06-.07.43-.33,1.03-.46,1.53-.56.03,0,.04-.07.05-.07.09-.02.77-.08.81-.07.02,0,.07.07.08.07l-.13.12c.46.21-.11.1-.65.33-.83.37-1.9,2.04-2.26,2.94-.09.21-.44,1.27-.28,1.25-.05.16-.11.34,0,.49-.05.24-.1.5-.13.74l-.36.95c-.43-.41-.05-1.27-.14-1.3-.05-.02-.1.07-.13.02-.04-.09-.01-1.12-.19-1.99-.37-1.82-2.38-3.14-4-2.82-.19.04-.46.24-.55.18.46-.33,1.18-.61,1.72-.67.98-.1,1.08.33.57-.39l.87.6Z"/>
                <path class="cls-5" d="M35.16,15.35s.8.19,1.11.42c.03.02.07.05.09.07.06.06.39.4.27.49-.59-.42-1.3-.5-1.98-.63l.4-.63s.1.27.11.28Z"/>
                <g>
                  <path class="cls-5" d="M36.33,13.48c.12.65.11.66-.27.14l.06.42c-.34-.94-.09-.16-.19-.14-.05-.13-.19-.47-.24-.55-.21-.31.18.66-.24-.19l.06.42c-.47-.92.01.23-.13.25-.04-.21-.15-.45-.3-.58l.03.23c-.03-.07-.29-.6-.28-.4.35.66.21.58-.21-.02-.04.01.23.73-.08.21-.01-.02.03-.12-.05-.11-.03.04.05.1.05.11.02.12.02.19.03.25l-.03.04c-.07-.25-.41-.64-.13-.12l-.03.09c-.36-.72.05.18-.32-.28,0-.01.02-.08-.06-.11l-.06-.05.06.05c-.01.09.06.1.06.11.03.09.07.18.06.28-.15-.12-.16-.23-.24-.25l.08.35c-.43-.62.03.12-.02.46-.01-.08-.05-.14-.08-.21-.04-.09-.04-.19-.13-.3-.02-.02.04.19-.3-.3l.13.49c-.54-.73-.13-.2-.14.21-.3-.44-.22-.2-.24-.21-.28-.27-.45-.71-.05.23,0,.19-.16-.22-.25-.14.28.95.29.55-.55-.12-.08.04.4.71.43.79-1.07-.69-.87-.73-.32.14-.66-.3-.94-.47-.19.11-.23.13-.44.29-.57.55-.24.47.07.07.68.07.03,0,0,.11.03.11.33,0,.68-.07,1.01-.04.33.04.85.17,1.22.25.67.13,1.39.21,1.98.63.12-.09-.21-.44-.27-.49.32-.65.26-.71-.09-.07-.31-.23-1.06-.38-1.11-.42.16-.14.76-.37.9-.39.01,0,.08.11.09.11.39-.05.79-.15,1.19-.18.12.22.9.13,1.47.35.33.13,1.05.79.47.11-1.75-.6-.11-.5.54-.18.41.21,1.35,1.25,1.6,1.69.05.09.08.19.13.28-.02,0-.04,0-.06,0-.06-.02-.22-.26-.36-.35-.33-.2-.41.07-.76-.63-.12-.03.17.36.13.39-.4.06-.49-.1-.66-.14-.18-.04-.33.04-.35.04-.01,0-.04-.1-.05-.11,0,0-.06-.07-.08-.07-.04,0-.72.05-.81.07l.38-.3c-.38-.07-.82.51-.68.16-.34.5-.22-.11.17-.51-.51.16-.68,1.3-.62.44l-.16.32c.03-.42.39-.72.25-.7-.28.03-.61,1.41-.4.3.28-.5.48-.87.16-.46-.05.06-.13.28-.16.32-.01.02-.13.04-.25.21-.01.02.02.24-.06.04.55-1.24.04-.65-.17.26-.04-.74-.09.24-.16-.25-.41.05.1.53.11.81-.05.04-.06.07-.06.07-.01-.03-.39-.39-.46-.49.11.54-.17-.03-.28-.18l.16.49-.38-.63c-.04.1.1.28.17.49-.09-.06-.22-.3-.28-.42-.03-.09-.02-.2-.08-.18-.02.09.05.13.08.18.28.83.09.39-.25-.05.11.21.27.57.13.42-.17-.47-.02-.06-.05.23l-.33-.79c-.16-.2.12.35.02.62l-.28-.6s.17.69.05.77c-.1-.31-.14-.63-.16-.05l-.17-.72c.17,1.48.19.95-.28,0l-.05.05c.2.82.1.65-.16.04l.11.76-.33-.83h-.06c.32,1.22-.06.1-.22-.04-.12-.1.07.13-.13.02,0,0-.05-.09-.08-.11-.05.1.08.1.08.11.16.22.25.33.25.63-.08-.03-.06-.09-.06-.11-.15-.42-.12-.22-.06.07v.07l-.87-.6c.51.72.41.29-.57.39-.55.05-1.26.34-1.72.67-.15.11-.47.3-.41.46,0-.03-.03.14-.13-.46l.54-1c.99-1.23.91-1.25-.11-.09-.16-.04.33-1.17.33-1.34.76-1.29,1.32-1.92,2.75-2.11.94-.13,2.1-.1,2.75.77Z"/>
                  <g>
                    <g>
                      <path class="cls-5" d="M39.93,15c.25.22.51.43.74.67.21.22.46.67.58.56.04.07.27.67.32.44-.22-.5-.19-1.04-.38-1.51,0-.46.35.87.38.99.03.12.03.48.06.62-.09.28,0-.05-.22.11-.25-.44-1.19-1.48-1.6-1.69-.65-.33-2.29-.42-.54.18.58.68-.15.02-.47-.11-.57-.22-1.35-.13-1.47-.35.48-.04,1.35-.13,1.79-.07.27.04.54.26.81.18Z"/>
                      <path class="cls-5" d="M38.54,16.34s-.02.06-.05.07c-.5.1-1.1.23-1.53.56,0-.28-.52-.76-.11-.81.07.49.11-.5.16.25.21-.92.72-1.51.17-.26.08.2.05-.02.06-.04.12-.17.24-.19.25-.21.03-.03.11-.26.16-.32.32-.41.12-.04-.16.46-.22,1.11.12-.27.4-.3.14-.02-.22.28-.25.7l.16-.32c-.07.86.11-.28.62-.44-.4.4-.51,1.01-.17.51-.14.35.3-.23.68-.16l-.38.3Z"/>
                      <path class="cls-5" d="M36.36,15.84s-.07-.05-.09-.07c.36-.64.41-.58.09.07Z"/>
                    </g>
                    <g>
                      <path class="cls-5" d="M35.82,16.3c.07.12.2.37.28.42.03.07.11.2.09.26-.25.32-.2.11-.24.12-1.01.28-.78.06-.87-.21.12-.09-.08-.77-.05-.77l.28.6c.11-.27-.18-.81-.02-.62l.33.79c.02-.29-.12-.69.05-.23.14.15-.02-.21-.13-.42.34.44.53.89.25.05Z"/>
                      <path class="cls-5" d="M30.07,17.25c-.01-.09-.07-.04-.03-.25.25-.36.29-.8.44-1.18-.04-.2.06-.4.09-.65,0,.19.07-.04.25-.35,0,.17-.49,1.3-.33,1.34,1.02-1.16,1.1-1.15.11.09l-.54,1Z"/>
                      <path class="cls-5" d="M32.33,15.84c.45-.03,1.07.23.14.16.68.65.46.65-.19-.07l.05-.09Z"/>
                      <path class="cls-5" d="M33.89,16.76c0,.06,0,.09-.03.14-.07-.05-.06-.08-.09-.11v-.07l.06-.07s-.02.08.06.11Z"/>
                      <path class="cls-5" d="M33.83,16.65l-.06.07c-.06-.29-.08-.49.06-.07Z"/>
                      <path class="cls-5" d="M35.82,16.3s-.1-.08-.08-.18c.06-.02.05.09.08.18Z"/>
                      <path class="cls-5" d="M33.64,16.12s-.13,0-.08-.11c.03.01.07.1.08.11Z"/>
                      <g>
                        <path class="cls-5" d="M33.89,13.87c-.3.1-.03.18-.36.28-.06-.04-.04-.12-.08-.18.01-.41-.4-.94.14-.21l-.13-.49c.34.49.28.28.3.3.08.11.09.2.13.3Z"/>
                        <path class="cls-5" d="M34.56,13.56c.02.06.02.12.03.18-.69.19-.46.09-.6-.11l-.08-.35c.07.02.09.13.24.25.02.02.08.15.25,0l.03-.09c-.28-.51.06-.13.13.12Z"/>
                        <path class="cls-5" d="M34.4,13.52c-.17.15-.23.02-.25,0,0-.1-.03-.19-.06-.28.37.47-.05-.43.32.28Z"/>
                        <path class="cls-5" d="M34.56,13.27s-.08-.07-.05-.11c.08-.01.04.09.05.11Z"/>
                        <path class="cls-5" d="M34.08,13.24s-.08-.02-.06-.11c.08.02.06.09.06.11Z"/>
                        <path class="cls-5" d="M34.02,13.13l-.06-.05.06.05Z"/>
                      </g>
                    </g>
                  </g>
                </g>
                <g>
                  <path class="cls-5" d="M31.59,12.32c-.37.47-.73.69-.92,1.57-.55-.6-.03.24,0,.42.04.27-.06.6-.09.86-.03.25-.14.45-.09.65-.15.38-.19.81-.44,1.18-.11-1.08-.63-3.38-.6-4.33,0-.05-.02-.22.02-.25.85,1.21.02,0-.02-.23-.1-.58.21-.36.22-.39.01-.04-.14-.46.21-.76.73,1,.46.5.05-.19.53-1.08.42-.08.79-.18-.42-.51-.33-.48.17-1.07.12-.09.08.12.11.25.13.45.07.08.51-.49l.05-.07c-.74.12.1-.35.51-.39.31-.03.76.02,1,.26l-.71.02c.55.56.05.1-.27.09,1.06.9.24.27-.27.37-.51.1.36.05.68.62-.02.05-.49-.25-.89-.21.1-.01.73.59.62.65-1.4-.61-.45-.28-.09.35-.77-.45-.23-.06-.11.23.11.27-.07-.03-.4-.19-1.01-.5-.09.09.08.33.01.02-.17.02.19.35-.92-.35-1.25-.59-.22.14-1.44-.13-.59-.21.03.32-.03.05-.09.08-.09.09Z"/>
                  <path class="cls-5" d="M29.77,11.58c.09.3.39.52.32.7-.09-.21-.33-.49-.32-.7Z"/>
                  <path class="cls-5" d="M30.21,10.99c.2,0,.37.27.16.18l-.16-.18Z"/>
                </g>
                <path class="cls-5" d="M27.26,10.77c-.3-.17-1.08-.42-1.42-.49-.23-.04-.47-.1-.7-.11.71-.28,1.56.1,2.12.6Z"/>
                <path class="cls-5" d="M25.74,10.53c-.11.15-.48.44-.44.63-.22.2-.25.34-.27.35-.02,0-.07-.08-.44.04-.06-.05.16-.35.21-.42.11-.04.47-.57.54-.44-.63.85.01.05.3-.16.02-.01.11-.06.11,0Z"/>
                <path class="cls-5" d="M29.37,16.23c-.17-.4-.58-.86-.92-1.09.09.03.12-.1.16-.18.41.52.51.62.76,1.27Z"/>
                <path class="cls-5" d="M28.24,14.47s-.02-.02-.03-.04c.66-.07.92.31.03.04Z"/>
                <path class="cls-5" d="M25.61,11.02s-.47.61-.22.19c.09-.16.21-.18.22-.19Z"/>
                <path class="cls-5" d="M24.16,11.02s0,.15-.08.14c-.02-.08.05-.11.08-.14Z"/>
                <g>
                  <path class="cls-5" d="M33.17,11.94c.6.07,1.13.16,1.71.35.04.36-1.23-.05-1.3.42-1.43.2-1.99.82-2.75,2.11-.18.31-.24.54-.25.35.04-.26.13-.6.09-.86-.03-.18-.55-1.02,0-.42.19-.88.54-1.1.92-1.57,0,.05.08.04.11.04.23-.07.5-.33,1.47-.42Z"/>
                  <path class="cls-5" d="M35.7,12.53c.36.26.54.48.63.95-.65-.88-1.81-.9-2.75-.77.06-.47,1.33-.06,1.3-.42.26.09.59.27.82.25Z"/>
                  <path class="cls-5" d="M35.7,12.53c-.24.03-.56-.16-.82-.25-.57-.19-1.11-.28-1.71-.35.86-.08,1.78.07,2.53.6Z"/>
                  <g>
                    <path class="cls-5" d="M35.13,13.48c.06.15.22.33.08.46-.06.01-.58.13-.6.11-.04-.03,0-.16-.02-.21.11,0,.01-.25,0-.32,0-.05,0-.13-.03-.25.31.52.04-.2.08-.21.41.6.55.68.21.02,0-.2.25.33.28.4Z"/>
                    <path class="cls-5" d="M34.59,13.84s0-.07,0-.11c-.01-.06-.02-.12-.03-.18l.03-.04c.01.07.11.33,0,.32Z"/>
                    <path class="cls-5" d="M34.81,13.48c.09.16.17.04.22.3-.39.08-.29-.13-.25-.37,0,.02.02.05.03.07Z"/>
                    <path class="cls-5" d="M34.81,13.48s-.03-.05-.03-.07c0-.06-.03-.3.03.07Z"/>
                  </g>
                </g>
                <path class="cls-5" d="M35.47,21.86c-.37.76-1.15,2.1-.74.99-.25.14-.36.39-.46.19.74-.75-.1-.14-.22-.32l.76-.74-.77.37c-.15.02,0-.12-.14-.3,1.28-.84,1.3-1.22-.05-.19-.1-.05,1.33-1.59.7-1.02-.23.2-.74,1.04-.9.58.32-.29.61-.62.92-.93.2-.2.43-.36.6-.6.18.87.15,1.9.19,1.99.03.06.08-.04.13-.02Z"/>
                <path class="cls-5" d="M32,19.19c-.05-.04-.1-.07-.16-.11l.3-.53-.14.63Z"/>
                <path class="cls-5" d="M29.5,16.62c.16.24.1.47-.03.09-.01-.04.04-.06.03-.09Z"/>
                <path class="cls-5" d="M29.44,16.41c-.02-.05-.04-.12-.06-.18.05.11.05.14.06.18Z"/>
                <path class="cls-5" d="M29.5,16.62s-.02-.07-.03-.11c0,0,.05-.02.03.11Z"/>
                <path class="cls-5" d="M29.47,16.51s-.02-.08-.03-.11c.01.04.02.07.03.11Z"/>
              </g>
              <g>
                <path class="cls-5" d="M42.93,16.19c1.16-.14,2.46.58,3.35,1.37.72.64,1.29,1.55,1.39,2.59.12,1.26-.3,1.7-.32,1.8-.03.2.05.11.19-.05-.31.75-.98,1.21-1.64,1.51.03-.03.1-.2.14-.25.12-.13.63-.32.06-.18-.17-.12,1.07-.72.22-.42-.36,0,.17-.28.49-.58-1.17.33-.22-.12.16-.53.05-.18-.59.38-.85.18,1.05-.88,1.54-1.14.13-.49.09-.02.83-.58.68-.58-1.49.81-.8.36.11-.65l-1.03.48c.69-.8.89-.63-.16-.32-.16-.1.8-.85.9-.93-.04-.09-.99.52-1.11.46.8-.8,1.01-.74-.09-.28l.82-.84c-.04-.09-1.18.74-1.17.42.3-.27.36-.37-.05-.12l-.02-.05c.56-.28.72-.44.02-.09l-.08-.05c.56-.77.53-.99-.14-.19.21-.79.31-.87-.16-.14.22-.78-.08-.18-.11,0-.33-.34-.66-.72-1.09-.88-.75-.28-1.28-.1-1.34-.11-.12-.01-.06-.04-.22-.21.21-.47.53-.64.92-.84Z"/>
                <path class="cls-5" d="M42.24,17.36c.97-.02,1.35.63,1.8,1.46.88,1.61,1.42,3.75,1.07,5.63-.02.12-.2.41-.06.4-.07.12-.21.37-.28.46-.45.52-1.49,1.26-.41.02l-.02-.05c-.73.75.2-.39.13-.42-.68.76-.33-.24.3-.76-1.05.64-.7.43-.09-.32l-.08-.02c-.29.32-.45.32-.08-.05.08-.24-.16.15-.44.21l.44-.62c.14-.1.29-.06.03-.32-.01-.01.08-.08-.02-.07-.92.59.22-.31.13-.35-.96.67-.9.7-.19-.25-.5.46-.94.72-.52.23l-.19-.04c.1-.08.89-.71.77-.79-.68.58-1.33,1.08-.21.05-.18.02-.76.39-.76.25.41-.49,1.06-.75.02-.33l.43-.4c-.06-.02-.17.06-.25.09-.23-.06-.23.17-.32-.11,1.16-.75,1.61-.81.02-.28-.11-.09.67-.79.09-.39-.16-.02.28-.45.25-.56l-.46.6c-.09-.45-.15-.97-.28-1.41l.35-.55-.38.4c-.09-.24-.84-1.49-1.01-1.69.07-.05.14-.03.22-.04Z"/>
                <path class="cls-5" d="M44.67,18.24c-.02.15.1.2.16.33.74,1.75,1.2,3.1.73,5.09-.1.44-.28.82-.51,1.2-.13,0,.04-.28.06-.4.34-1.88-.19-4.02-1.07-5.63-.46-.83-.83-1.49-1.8-1.46v-.11c.07,0,.6-.18,1.34.11.43.16.77.54,1.09.88Z"/>
                <path class="cls-5" d="M45.91,23.41c-.06.07-.06.25-.35.25.47-1.98.02-3.34-.73-5.09-.06-.13-.18-.18-.16-.33.03-.18.33-.78.11,0,.47-.73.37-.65.16.14.67-.79.7-.57.14.19l.08.05c.7-.35.54-.19-.02.09l.02.05c.4-.24.35-.14.05.12-.01.32,1.13-.51,1.17-.42l-.82.84c1.1-.46.89-.52.09.28.12.06,1.07-.55,1.11-.46-.1.08-1.07.83-.9.93,1.05-.32.84-.49.16.32l1.03-.48c-.91,1.01-1.6,1.46-.11.65.15,0-.59.56-.68.58,1.41-.65.92-.38-.13.49.26.2.9-.36.85-.18-.38.41-1.32.86-.16.53-.32.3-.85.58-.49.58.85-.3-.39.3-.22.42.57-.14.05.05-.06.18-.04.05-.11.21-.14.25Z"/>
                <path class="cls-5" d="M47.42,17.92l.09.33c-.48.04-.8-.59-1.23-.69-.89-.79-2.19-1.51-3.35-1.37.41-.22.36-.24.38-.25.02,0,.05.06.11.04.53-.18.88-.3,1.45-.25,1.04.1,2.07,1.21,2.54,2.18Z"/>
                <path class="cls-5" d="M39.65,11.65c.18.21.51.78.7,1.06.34.5,1.07,1.33.68,1.27-.4-.53-.9-.94-1.38-1.37-.64-.59-1.22-1.28-2.05-1.51.03-.15-.09-.05-.16-.23.11-.13.24-.02.16-.23.76.09,1.53.39,2.05,1.02Z"/>
                <path class="cls-5" d="M47.42,17.92c.5,1.03.92,3.01.13,3.98-.14.17-.21.26-.19.05.01-.09.44-.53.32-1.8-.1-1.04-.67-1.95-1.39-2.59.43.1.75.72,1.23.69l-.09-.33Z"/>
                <g>
                  <path class="cls-5" d="M40.85,11.37c.14.51.29,1.34.41,1.67.1.28.67,1.01.14.83-.14-.05-.91-1.43-1.06-1.16-.19-.27-.52-.84-.7-1.06.27-.07.55-.13.82-.21.11-.03-.04-.12.38-.07Z"/>
                  <path class="cls-5" d="M40.12,9.75c.1,0,.17.03.28,0,.16.54.29,1.08.44,1.62-.42-.05-.27.04-.38.07l-.54.02c.65-.47.67-.47-.11-.19.11-.29.45-.45.73-.56l-.87.3c.71-.59.87-.52-.06-.25l.28-.32c-.71.33-.07-.19.19-.32-.91.28-.61.09.03-.37Z"/>
                  <path class="cls-5" d="M40.41,9.75c-.12.03-.18,0-.28,0-.01,0,.07-.08-.02-.07-.34.04-1.16.69-.21-.16l-.54.18.57-.49c-.67.25-.89.44-.16-.21-.91.18-.72.03,0-.26.24.04.19.09.33.25.02.03.05-.08.11.02.04.06.14.61.19.76Z"/>
                </g>
                <path class="cls-5" d="M37.59,10.63c.08.21-.05.1-.16.23.07.18.19.07.16.23-.19-.05-.62-.19-.7-.04-.28-.08-.44-.03-.46-.04-.03,0-.06-.14-.62-.19l.13-.07-.03-.05c.53-.14,1.13-.14,1.68-.07Z"/>
                <path class="cls-5" d="M41.26,16.23c-.12.11-.37-.34-.58-.56-.23-.24-.5-.44-.74-.67-.29-.26-.27-.34-.28-.35l.16-.11c.54.23,1.15,1.14,1.45,1.69Z"/>
                <path class="cls-5" d="M35.92,11.76s-.14.23.28.11c.12-.03.55-.48.13.05l.02.09c.21-.36.87-.78.24-.12,0,.16.69-.46.16.11.8-.53.32-.32.13.23,0,0-.05.09-.08.11-.06.02-.67-.2-.79-.25-.17-.06-.31.14-.24-.46.03-.03.21-.31.16-.11-.03.03-.13.06-.08.14l.08-.14c.53-.55.05.03,0,.25Z"/>
                <path class="cls-5" d="M42.02,17.39c.18.2.93,1.45,1.01,1.69,0,0-.02-.01.03.14.13.43.2.96.28,1.41.04.2.05.47.09.63.09.28.09.05.32.11-.05.02-.31.11-.32.12-.05.13.25,1.2-.32,2.69-.25-.04.04-.54.06-.76.12-1.2-1.03-4.87-1.56-6.11-.67.47-2.73,6.2-2.77,6.56,0,.05.03.05.03.09-.36-.14-.24-1.88-.16-2.38.07-.4.22-.77.35-1.14.03-.09.03-.13.03-.14.02-.05.15-.24.16-.26.01-.04-.04-.06-.03-.09,0,0,.1.03.09-.18.09.02.08-.1.09-.14.07-.14.15-.27.22-.42,0-.01.14-.13.16-.25,0-.01,0-.02,0-.04.08-.05.11-.17.16-.25.4-.63.96-1.1,1.52-1.55.02,0,.04,0,.06,0,.1.02.06-.23.47.25Z"/>
                <path class="cls-5" d="M41.73,22.14c-.31.06-.31.39-.38-.28l.87-.28-.44.32c1.08-.17.56-.1-.05.25Z"/>
                <g>
                  <path class="cls-5" d="M43.12,24.18c-.18.47-.51,1.08-.85,1.41-.06.05-.38.32-.41.26.43-.66.06-.26.03-.35.34-.45.59-.66.05-.26,0-.54,1.04-1.1,0-.56l-.05-.05c.48-.78,1.29-1.11-.02-.37-.17-.12,1.39-1.33.25-.63-.27.17-.63.59-.05-.25.05-.07.16-.17,0-.04l-.36.18c-.14-.4,1.38-1.01.33-.65.89-.83.01-.15-.49-.02-.13-.07.22-.29.46-.48-.01-.06-1.12.43-.28-.23.6-.35,1.13-.42.05-.25l.44-.32-.87.28c.03-.07.34-.2.41-.25.19-.12.02-.04-.03-.04-.14,0-.51-.04-.6.05-.11.11-.98,2.75-1.07,3.1-.5,1.78-1.64,7.72-.24,9.03.07,0,.93-1.12,1.07-1.16.22-.06.31.1.33.11l-.6,1c.07.12.44-.35.84-.37-1.21,1.5.18.09.51.04.08-.01.47.07.36.14-.04.01-.03.03-.03.04-.08.04-.36.37-.47.46-.14.13.02.04.03.04.33-.04.74-.16.76-.12-.05.06-.43.69-.3.65.07-.12.65-.75.7-.77.72-.36-.31.74-.3.86,0,.06.12.32.17.41-2.29.03-4.33,0-6.62,0-.16-.71.6-.76,1.01-1.16.09-.09.12.12.13-.39.01-.71-.06-1.41,0-2.13.19-2.26,1.43-5.81,2.24-7.95.09-.23.56-1.24.25-.74-.35.56-.77,1.73-1.01,1.28,0-.04-.04-.04-.03-.09.04-.36,2.09-6.09,2.77-6.56.53,1.24,1.68,4.91,1.56,6.11-.02.22-.32.71-.06.76Z"/>
                  <g>
                    <path class="cls-5" d="M41.53,19.19c.17.88-.09,1.54.25.46l-.09.49c.61-.73.18-.06-.08.3l.47-.28-.44.49.55-.26v.07c-.67.47-.33.27.17.19l-.6.39c1.02-.24.14.09-.17.33l-.35.07c.15-.75.31-1.48.28-2.25Z"/>
                    <path class="cls-5" d="M42.48,23.2l.02.02c.03.1-.32.3-.02-.02Z"/>
                    <path class="cls-5" d="M42.08,23.37v-.04c.16-.14.05-.03,0,.04Z"/>
                    <path class="cls-5" d="M41.76,21.62l-.03-.04s.22-.09.03.04Z"/>
                    <g>
                      <path class="cls-5" d="M40.39,21.12c.35.33-.07.73-.25,1.27-.16-.37-.19-1.1-.02-.23.49-.58.21-1.02.27-1.04Z"/>
                      <path class="cls-5" d="M40.74,20.74c.1,0-.06.32-.13.53-.03,0,.06-.55.13-.53Z"/>
                      <path class="cls-5" d="M41.86,34.04s-.17.09-.03-.04l.03.04Z"/>
                    </g>
                  </g>
                </g>
                <path class="cls-5" d="M37.59,11.09c.83.23,1.41.92,2.05,1.51-.29.21-.5-.24-.84-.49-.69-.53-1.09-.82-1.91-1.06.08-.16.51-.02.7.04Z"/>
                <g>
                  <path class="cls-5" d="M42.33,12.46c-.25.42-.29.66-.35.77l-.38.05c.06.46.17.33.35.02-.23.74-.33.86.32.28l.43-.04c.13-.06.26-.14.4-.18.06-.02.13-.05.19-.07.08-.02.28-.02.47-.07.08.09-.37.29-.65.56-.39.38-.7.91-.84,1.44-.13.5-.16,1.02-.03.4.29-.24.3-.78.84-1.25.43-.38.79-.46,1.31-.49,1.09-.07,2.62.16,3.49.95l.05-.14c.19.38.3.7.25,1.14-.25-.57-.2-.66-.16-.07-.36-1.14-.04-.06-.16-.05.05-.33-.65-1.21-.35-.62h-.06c-.09-.25-.3-.65-.17-.16-.3-.44-.31-.38-.05.05-.03.36-.25-.5-.19.12l-.4-.63c-.23-.06.19.2.14.42l-.27-.35v.18s-.29-.45-.33-.33c.27.32.36.56-.05.19.05.17.01.2.02.21h-.03c-.25-.32.14.42-.33-.21-.07-.01.06.27-.22.04.1.34-.37-.48-.08.16-.41-.29.09.3-.33-.16l.08.28c-.58-.64.4.87-.27,0-.07-.03.01.15.05.25-.14-.17-.26-.36-.28-.3l.17.44c-.33-.4-.45-.69-.25.04-.09-.22-.36-.37-.55-.53,0,0-.06-.11-.11-.14-.2-.07.06.12.11.21.36.59.25.66-.21.14.51.97.06.36-.38.04-.16-.01.44.45.32.63-.64-.45,0,.1-.35.14-.62-.73-.29-.33-.21-.12.02.04.03.17.03.23-.02,0,.03.02-.38.25-.38.21-.71.38-.92.84-.05-.05-.13-.02-.16-.05-.03-.05.07-1.03.09-1.18.03-.21.07-.4.13-.6.03-.07.13-.15.08-.25-.07.06-.06.18-.08.25-.11.21-.11.14-.19.46-.23.94-.09,1.85-.25,1.09-.03-.14-.04-.49-.06-.62-.03-.12-.39-1.45-.38-.99.19.47.15,1.02.38,1.51-.04.23-.28-.37-.32-.44-.3-.55-.92-1.46-1.45-1.69-.1-.04-.17.02-.25-.05.67-.58-.19.08-.16-.18.39-.34-.16,0-.19-.07.08-.1.17-.15.28-.19.05-.02.55-.13.54-.19-.29-.12-.43.32-.63-.09.12-.09.58-.3.08-.14-.13.04-.52.29-.7.39l.28-.35-.49.12c.26-.38,1.04-.74.14-.44-.09.03-.36.24-.36.12l.62-.58-.9.37.58-.69c-.46.17-1.27,1.03-.52-.02l-.38.14c1.01-1.13.15-.27-.35.07.35-.64.41-.66-.17-.19-.22,0,.68-.64.03-.25-.1-.05.33-.36.35-.49l-.51.35c.76-.75.11-.22-.24.04.19-.55.67-.76-.13-.23.53-.57-.17.06-.16-.11.64-.65-.03-.24-.24.12l-.02-.09c.42-.54-.01-.09-.13-.05l.25-.37-.25.14.17-.26-.46.39c.05-.21.53-.79,0-.25.05-.2-.13.08-.16.11-.07.06-.14.16-.22.19.44-1.03.03-.14-.14-.05-.12-.03.12-.21.09-.32l-.38.39.19-.46c-.2.18-.42.82-.25.21l-.3.37c.55-1.12-.39.55.06-.49.23-.39.71-.65,1.11-.76l.03.05-.13.07c.56.06.58.19.62.19.02,0,.17-.05.46.04.82.24,1.23.53,1.91,1.06.33.26.54.7.84.49.48.44.98.84,1.38,1.37.39.06-.34-.76-.68-1.27.15-.27.92,1.11,1.06,1.16.53.19-.04-.54-.14-.83-.12-.34-.27-1.16-.41-1.67-.15-.54-.28-1.08-.44-1.62-.04-.15-.15-.7-.19-.76-.06-.09-.09,0-.11-.02-.14-.16-.09-.21-.33-.25-.2-.03-.67.09-.4-.11-.7-.02-.17-.17.16-.18-.07-.19-.93-.14-.93-.19.42-.41,1.11-.15,1.5.19.42.36.23.44.25.46.04.02.6-.01.74.4-.54.48-.54.44.11.16l.27.55c-.38.22-.76.46-.4.37.47-.12.28-.55.81.3l-.73.42c.14.05.84-.2.89-.07-.33.79-.69.57.19.39l-.28.42c.73-.27.04.29.35.28l-.32.28c.02.07.36-.27.35.05Z"/>
                  <g>
                    <path class="cls-5" d="M39.49,14.05c-.46.05-.63.1-.09-.28.21.41.35-.03.63.09.01.07-.49.17-.54.19Z"/>
                    <g>
                      <path class="cls-5" d="M47.87,15.74c-.12.01-.18-.31-.27.04-.19-.02-.14-.38-.14-.4-.14-.5-.11-.28-.16-.07-.01.05-.15.02-.03.25-.18.11-.21-.25-.22-.4-.06-.62.16.23.19-.12-.26-.43-.25-.49.05-.05-.12-.49.09-.1.17.16h.06c-.3-.59.4.29.35.62Z"/>
                      <path class="cls-5" d="M46.13,14.82c.13,1.04-.6-.5-.46.25-.18-.24-.15-.07-.21-.07.02-.06-.04-.11-.06-.04-.07.07.13.38-.16-.04l-.08-.28c.42.46-.08-.13.33.16-.29-.63.18.18.08-.16.28.24.15-.05.22-.04.47.63.08-.11.33.21Z"/>
                      <path class="cls-5" d="M44.1,14.82v.07c-.05-.09-.31-.28-.11-.21.05.03.1.14.11.14Z"/>
                    </g>
                    <path class="cls-5" d="M41.95,15.81c-.02.15-.13,1.13-.09,1.18.02.03.11,0,.16.05.16.17.1.2.22.21v.11c-.08,0-.15-.02-.22.04-.41-.47-.37-.22-.47-.25-.05-.09-.08-.19-.13-.28.22-.15.13.17.22-.11.16.76.02-.15.25-1.09l.06.14Z"/>
                    <path class="cls-5" d="M36.2,11.87c-.42.12-.29-.08-.28-.11l.46-.39-.17.26.25-.14-.25.37Z"/>
                    <path class="cls-5" d="M42.6,15.81l-.46.65-.17.44c-.2.07.36-1.02.63-1.09Z"/>
                    <path class="cls-5" d="M41.99,13.24s0,.03-.03.07c-.17.31-.28.45-.35-.02l.38-.05Z"/>
                    <path class="cls-5" d="M41.95,15.81l-.06-.14c.08-.32.08-.25.19-.46-.06.2-.1.39-.13.6Z"/>
                    <path class="cls-5" d="M43.28,13.27v.04c-.06.02-.13.05-.19.07-.07-.08.1-.08.19-.11Z"/>
                    <path class="cls-5" d="M42.08,15.21c.02-.06,0-.19.08-.25.05.1-.04.18-.08.25Z"/>
                  </g>
                </g>
                <path class="cls-5" d="M44.55,22.99c.26.25.11.22-.03.32-.7.5-.74.19.03-.32Z"/>
                <path class="cls-5" d="M43.44,21.26c-.05-.16-.06-.43-.09-.63l.46-.6c.03.11-.42.55-.25.56.58-.4-.21.3-.09.39,1.6-.52,1.14-.46-.02.28Z"/>
                <path class="cls-5" d="M43.06,19.22c-.05-.15-.03-.13-.03-.14l.38-.4-.35.55Z"/>
                <g>
                  <path class="cls-5" d="M47.17,10.81c.31.31.3.49.38.93-.46-.59-.61-.69-.09,0,.05.24-.24-.33-.58-.58-.12.04.36.3.19.35-.43-.4-.68-.63-.19,0-.45-.36-.71-.49-.14.05l-.05.05c-.58-.47-.21-.16-.08.07h-.06s-.42-.43-.44-.33c.23.25.61.71.41.62-.19-.39-1-.97-.25-.23l-.02.05c-.4-.46-.34-.34-.08.11-.06-.04-.47-.51-.51-.4-.04.12.78.59-.28,0,.32.22.8.95.14.33-1.45-.4-.5-.25.05.39-.38-.21-.81-.15-1.22-.21.25.14.54.17.74.4-.96-.02-.68-.16-.25.19.02.01.3.28.17.28l-.6-.32c-1.17-.24-.17-.02.27.3l-.77-.05.43.25c-.09,0-.19.02-.28.04-.25.03-.51.12-.76.18-.09.02-.26.02-.19.11-.13.04-.27.12-.4.18l-.43.04c.42-.37.76-.92,1.17-1.34.3-.3.61-.57.95-.81.06.2.3-.12.65-.28.3-.14.87-.24.77-.35,1.23-.12,1.25.1,1.31.11.02,0,.06-.07.05-.11Z"/>
                  <path class="cls-5" d="M43.44,12.25c-.41.42-.75.96-1.17,1.34-.64.58-.54.45-.32-.28.02-.04.03-.06.03-.07.06-.12.09-.35.35-.77.27-.45.76-.96,1.17-1.27.11.13.53-.32.54-.02,0,.16-.68.7-.6,1.07Z"/>
                  <path class="cls-5" d="M47.17,10.81s-.03.11-.05.11c-.07,0-.09-.23-1.31-.11-.02,0-.15-.06-.46.04-.15.05-.78.47-.96.6-.34.24-.65.51-.95.81-.08-.38.61-.92.6-1.07,0-.3-.43.15-.54.02.87-.65,2.82-1.25,3.67-.39Z"/>
                  <path class="cls-5" d="M46.16,11.9s.11.06.09.21c-.19.08-.37.15-.57.21-.02-.06-.08-.08-.13-.11-.55-.64-1.5-.79-.05-.39.66.62.18-.12-.14-.33,1.07.59.24.12.28,0,.03-.11.45.36.51.4Z"/>
                  <path class="cls-5" d="M45.56,12.22s.11.04.13.11c-.01,0-.14.12-.21.11-.13-.02-.03-.27-.33.05.24.33-.24-.16-.32.12-.43-.35-.71-.21.25-.19-.21-.23-.49-.27-.74-.4.41.06.84,0,1.22.21Z"/>
                  <path class="cls-5" d="M46.51,11.97c.04.16-.17.11-.25.14.01-.15-.09-.2-.09-.21-.26-.45-.32-.57.08-.11l.02-.05c-.75-.75.06-.16.25.23Z"/>
                  <path class="cls-5" d="M46.6,11.69c.11.19.03.09-.06,0h.06Z"/>
                  <path class="cls-5" d="M43.76,13.24c-.2.05-.4.05-.47.07v-.04c.25-.06.51-.15.76-.18.03.07-.18.11-.28.14Z"/>
                  <path class="cls-5" d="M45.81,10.81c.09.11-.48.21-.77.35-.35.16-.59.48-.65.28.18-.13.82-.55.96-.6.31-.1.44-.03.46-.04Z"/>
                </g>
                <path class="cls-5" d="M35.92,11.51l-.08.14c-.05-.08.05-.11.08-.14Z"/>
                <g>
                  <path class="cls-5" d="M47.55,14.22c.25.42-.18.01-.21,0-.11-.05-.81-.34-.85-.35-.25-.07-1.81-.13-2.1-.11-.99.08-1.63.51-2.12,1.48.14-.54.45-1.06.84-1.44.28-.27.73-.48.65-.56.11-.03.31-.07.28-.14.09-.01.19-.03.28-.04.92-.07,2.67.26,3.22,1.16Z"/>
                  <path class="cls-5" d="M47.55,14.22c.14.06.3.34.38.49l-.05.14c-.87-.8-2.41-1.02-3.49-.95v-.14c.29-.02,1.85.03,2.1.11.04.01.74.3.85.35.02.01.46.42.21,0Z"/>
                  <path class="cls-5" d="M45.02,15.17s.1.04.05.11c-.06-.05-.04-.1-.05-.11Z"/>
                  <path class="cls-5" d="M45.46,15s-.03-.04-.06-.04c.02-.08.08-.03.06.04Z"/>
                  <path class="cls-5" d="M44.39,13.77v.14c-.52.03-.88.12-1.31.49-.53.47-.55,1.01-.84,1.25-.13.62-.1.09.03-.4.49-.97,1.13-1.4,2.12-1.48Z"/>
                  <g>
                    <path class="cls-5" d="M46.79,14.93s-.1.02-.08.28c-.31.02-.45,0-.55-.39,0-.01.03-.04-.02-.21.41.36.31.13.05-.19.04-.12.31.34.33.33v-.18l.27.35Z"/>
                    <path class="cls-5" d="M46.59,14.75l.02.02v.04l-.02.02h-.03l-.02-.02.02-.02.02-.02.02-.02Z"/>
                  </g>
                </g>
                <path class="cls-5" d="M37.24,22.39c-.49-.24.16.22.47.81l-.05.11c-.56-.43-.36-.22-.08.23-.09.45-.31-.04-.77-.55l-.08.02c.05.13.85,1.19.55,1.21-.75-.86-.59-.66-.11.26l-.05.16c-.79-.94-.34-.56-.16.39-.67-.74.09.37,0,.42-.99-.66-1.12-2.09-1-3.24.03-.24.08-.5.13-.74.07-.37.15-.5.16-.53.15.03.08.22.13.33.28.66.84.66.85,1.11Z"/>
                <path class="cls-5" d="M37.24,22.39c.21.11.42.24.63.35-.04.1-.11.33-.16.46-.32-.59-.97-1.05-.47-.81Z"/>
                <path class="cls-5" d="M36.26,20.95s-.08.16-.16.53c-.11-.15-.05-.34,0-.49.08-.22.25-.45.16-.04Z"/>
                <g>
                  <path class="cls-5" d="M41.48,17.15c-.55.45-1.12.92-1.52,1.55-.09.03.12-.65.19-.93-.51.04-.25.18-.27.62-.55-1.01-.06.41-.08.56,0,.01,0,.02,0,.04-.71-1.03-.7-.58-.16.25-.07.15-.15.28-.22.42-.57-.83-.1-.14-.09.14,0,.21-.09.17-.09.18l-.51-.76.38,1.11s0,.05-.03.14c-1.65-1.1-1.15-.83-.19.4l-.05.05c-.2.03-1.15-1.14-.11.19-1.43-.72-1.47-1.09-.32.42l-.05.12c-.78-.52-.56-.29-.08.23.05.49-1.19-.75-1.17-.49.17.34.87,1.09.89,1.16.02.12-.12.18-.13.19-.21-.11-.42-.25-.63-.35,0-.45-.57-.45-.85-1.11-.05-.11.02-.31-.13-.33.09-.41-.08-.19-.16.04-.16.02.2-1.04.28-1.25.36-.9,1.43-2.57,2.26-2.94.54-.24,1.1-.13.65-.33l.13-.12s.04.1.05.11c.02,0,.17-.08.35-.04.17.04.26.2.66.14.04-.02-.25-.41-.13-.39.35.71.43.44.76.63.14.09.3.34.36.35Z"/>
                  <g>
                    <path class="cls-5" d="M39.96,18.69c-.05.08-.07.19-.16.25.01-.15-.47-1.57.08-.56.02-.43-.25-.58.27-.62-.07.28-.28.96-.19.93Z"/>
                    <path class="cls-5" d="M39.8,18.98c-.02.11-.15.23-.16.25-.55-.83-.55-1.28.16-.25Z"/>
                    <path class="cls-5" d="M39.24,19.96s.05.04.03.09c0,.03-.14.21-.16.26l-.38-1.11.51.76Z"/>
                    <path class="cls-5" d="M39.43,19.64s0,.16-.09.14c0-.28-.47-.97.09-.14Z"/>
                    <path class="cls-5" d="M37.62,18.55s.27-.16.35-.25c.29.36.1.17-.36.56-.27.23-1.06,1.12-.4.12.11-.16.27-.31.41-.44Z"/>
                    <path class="cls-5" d="M37.97,18.31c-.07.09-.33.23-.35.25.04-.22.54-.48.35-.25Z"/>
                    <path class="cls-5" d="M37.07,21.62h.03c.6.52.32.56-.03,0Z"/>
                  </g>
                </g>
                <path class="cls-5" d="M35.98,18.83c0-.06-.12-.05-.13-.09,0,0,.05-.02.03-.16.2-.57.57-1.18,1.01-1.55,0,0,.06.01.03.12-.03.1-.62.67-.95,1.67Z"/>
                <path class="cls-5" d="M35.98,18.83c-.11.33-.37,1.84-.28.56.02-.31.09-.52.19-.81.02.13-.03.15-.03.16,0,.04.12.03.13.09Z"/>
              </g>
            </g>
          </g>
          <polygon class="cls-5" points="27.95 35.06 42.89 35.06 33.34 42.76 27.95 35.06"/>
        </g>
      </g>
    </g>
  </g>
</svg>